<svg width="9" height="9" viewBox="0 0 9 9" fill="none" xmlns="http://www.w3.org/2000/svg">
<path d="M4.50005 1.8C4.6194 1.8 4.73386 1.84741 4.81825 1.93181C4.90264 2.0162 4.95005 2.13066 4.95005 2.25V4.95C4.95005 5.06935 4.90264 5.18381 4.81825 5.2682C4.73386 5.35259 4.6194 5.4 4.50005 5.4C4.3807 5.4 4.26624 5.35259 4.18185 5.2682C4.09746 5.18381 4.05005 5.06935 4.05005 4.95V2.25C4.05005 2.13066 4.09746 2.0162 4.18185 1.93181C4.26624 1.84741 4.3807 1.8 4.50005 1.8V1.8ZM4.50005 6.3C4.3807 6.3 4.26624 6.34741 4.18185 6.4318C4.09746 6.5162 4.05005 6.63066 4.05005 6.75C4.05005 6.86935 4.09746 6.98381 4.18185 7.0682C4.26624 7.15259 4.3807 7.2 4.50005 7.2C4.6194 7.2 4.73386 7.15259 4.81825 7.0682C4.90264 6.98381 4.95005 6.86935 4.95005 6.75C4.95005 6.63066 4.90264 6.5162 4.81825 6.4318C4.73386 6.34741 4.6194 6.3 4.50005 6.3Z" fill="#F12A2A"/>
<path fill-rule="evenodd" clip-rule="evenodd" d="M4.5 0C2.01465 0 0 2.01465 0 4.5C0 6.98535 2.01465 9 4.5 9C6.98535 9 9 6.98535 9 4.5C9 2.01465 6.98535 0 4.5 0ZM0.9 4.5C0.9 5.45478 1.27928 6.37045 1.95442 7.04558C2.62955 7.72072 3.54522 8.1 4.5 8.1C5.45478 8.1 6.37045 7.72072 7.04558 7.04558C7.72072 6.37045 8.1 5.45478 8.1 4.5C8.1 3.54522 7.72072 2.62955 7.04558 1.95442C6.37045 1.27928 5.45478 0.9 4.5 0.9C3.54522 0.9 2.62955 1.27928 1.95442 1.95442C1.27928 2.62955 0.9 3.54522 0.9 4.5V4.5Z" fill="#F12A2A"/>
</svg>
