<svg width="14" height="12" viewBox="0 0 14 12" fill="none" xmlns="http://www.w3.org/2000/svg">
<path d="M4.43875e-09 3.416L6.77982 7.11C6.84783 7.14705 6.92335 7.16639 7 7.16639C7.07665 7.16639 7.15217 7.14705 7.22018 7.11L14 3.41667V9.83333C14 10.3868 13.7979 10.9192 13.4351 11.3215C13.0723 11.7238 12.5763 11.9653 12.0489 11.9967L11.9318 12H2.06818C1.53991 12 1.03165 11.7883 0.647671 11.4082C0.263688 11.0281 0.0330901 10.5085 0.0031819 9.956L4.43875e-09 9.83333V3.416ZM2.06818 4.65013e-09H11.9318C12.4601 -3.62312e-05 12.9683 0.211703 13.3523 0.591781C13.7363 0.971859 13.9669 1.49146 13.9968 2.044L14 2.16667V2.28933L7 6.10267L4.43875e-09 2.28933V2.16667C-3.45843e-05 1.61324 0.20208 1.08078 0.564882 0.678513C0.927684 0.276245 1.42367 0.0346658 1.95109 0.00333341L2.06818 4.65013e-09H11.9318H2.06818Z" fill="#A5A5A5"/>
</svg>
