<svg width="12" height="12" viewBox="0 0 12 12" fill="none" xmlns="http://www.w3.org/2000/svg">
<path d="M11.9932 9.47021C11.9646 9.29324 11.8537 9.142 11.6875 9.05214L9.23011 7.60384L9.20988 7.59252C9.10684 7.54093 8.99305 7.51449 8.87783 7.51536C8.67194 7.51536 8.47531 7.59338 8.33885 7.73022L7.61354 8.45609C7.58251 8.48558 7.48137 8.52828 7.45068 8.52982C7.44228 8.52914 6.60673 8.46895 5.0685 6.93011C3.53301 5.39452 3.46787 4.55617 3.46735 4.55617C3.46821 4.5133 3.51038 4.41247 3.54038 4.38126L4.1589 3.76274C4.37678 3.54428 4.4421 3.18211 4.31284 2.90158L2.94689 0.330609C2.84764 0.126208 2.65478 0 2.44084 0C2.28946 0 2.14341 0.0627609 2.02923 0.176794L0.34323 1.85951C0.181572 2.02035 0.0423715 2.30158 0.0120286 2.52793C-0.00271434 2.63613 -0.301858 5.21893 3.23815 8.76046C6.24348 11.7663 8.58691 11.9998 9.23406 11.9998C9.31286 12.0009 9.39166 11.9968 9.46994 11.9877C9.69554 11.9575 9.97635 11.8186 10.137 11.6576L11.8216 9.97264C11.9591 9.83442 12.0218 9.6518 11.9932 9.47021Z" fill="#A5A5A5"/>
</svg>
